<svg width="24" height="24" viewBox="0 0 24 24" fill="none" xmlns="http://www.w3.org/2000/svg">
<g clip-path="url(#clip0_7_704)">
<path d="M14.4 6.59999C14.0817 6.59999 13.7765 6.72642 13.5514 6.95147C13.3264 7.17651 13.2 7.48173 13.2 7.79999C13.2 8.11825 13.3264 8.42348 13.5514 8.64852C13.7765 8.87357 14.0817 8.99999 14.4 8.99999C14.7182 8.99999 15.0234 8.87357 15.2485 8.64852C15.4735 8.42348 15.6 8.11825 15.6 7.79999C15.6 7.48173 15.4735 7.17651 15.2485 6.95147C15.0234 6.72642 14.7182 6.59999 14.4 6.59999ZM8.39995 7.79999C8.39995 7.48173 8.52638 7.17651 8.75142 6.95147C8.97647 6.72642 9.28169 6.59999 9.59995 6.59999C9.91821 6.59999 10.2234 6.72642 10.4485 6.95147C10.6735 7.17651 10.8 7.48173 10.8 7.79999C10.8 8.11825 10.6735 8.42348 10.4485 8.64852C10.2234 8.87357 9.91821 8.99999 9.59995 8.99999C9.28169 8.99999 8.97647 8.87357 8.75142 8.64852C8.52638 8.42348 8.39995 8.11825 8.39995 7.79999ZM12.6 2.99999C12.6 2.84086 12.5367 2.68825 12.4242 2.57573C12.3117 2.46321 12.1591 2.39999 12 2.39999C11.8408 2.39999 11.6882 2.46321 11.5757 2.57573C11.4632 2.68825 11.4 2.84086 11.4 2.99999V3.59999H7.79995C7.32256 3.59999 6.86472 3.78964 6.52716 4.1272C6.18959 4.46477 5.99995 4.9226 5.99995 5.39999V10.2C5.99995 10.6774 6.18959 11.1352 6.52716 11.4728C6.86472 11.8104 7.32256 12 7.79995 12H15.3527L15.7439 10.8H7.79995C7.64082 10.8 7.48821 10.7368 7.37569 10.6243C7.26317 10.5117 7.19995 10.3591 7.19995 10.2V5.39999C7.19995 5.24086 7.26317 5.08825 7.37569 4.97573C7.48821 4.86321 7.64082 4.79999 7.79995 4.79999H16.2C16.3591 4.79999 16.5117 4.86321 16.6242 4.97573C16.7367 5.08825 16.8 5.24086 16.8 5.39999V9.69959C17.189 9.56026 17.6155 9.56708 18 9.71879V5.39999C18 4.9226 17.8103 4.46477 17.4727 4.1272C17.1352 3.78964 16.6773 3.59999 16.2 3.59999H12.6V2.99999ZM10.2 13.8H12.4896C12.1755 14.119 11.9997 14.5488 12 14.9964V15.0036H6.37195C6.11416 15.0036 5.86693 15.106 5.68464 15.2883C5.50236 15.4706 5.39995 15.7178 5.39995 15.9756V16.5C5.39995 17.328 5.55715 18.2472 6.36235 18.9828C7.18795 19.7352 8.80795 20.4 12 20.4C13.86 20.4 15.186 20.1744 16.1328 19.836C16.3495 20.0789 16.6322 20.2536 16.9464 20.3388C16.869 20.5048 16.8215 20.6831 16.806 20.8656C15.7068 21.306 14.2416 21.5736 12.3 21.5976V21.6H11.7V21.5976C8.56075 21.558 6.66595 20.8836 5.55355 19.8696C4.50355 18.9096 4.24675 17.7372 4.20595 16.8024H4.19995V15.9744C4.19995 14.7756 5.17195 13.8036 6.37195 13.8036H10.2V13.8ZM17.8536 11.1384L18.2712 12.4236C18.4008 12.8146 18.6201 13.1699 18.9116 13.461C19.2031 13.7521 19.5587 13.9709 19.95 14.1L21.2351 14.5176L21.2603 14.5248C21.3595 14.5597 21.4453 14.6245 21.5061 14.7102C21.5668 14.796 21.5994 14.8985 21.5994 15.0036C21.5994 15.1087 21.5668 15.2112 21.5061 15.2969C21.4453 15.3827 21.3595 15.4475 21.2603 15.4824L19.9752 15.9C19.5839 16.0291 19.2283 16.2479 18.9368 16.539C18.6453 16.8301 18.426 17.1854 18.2964 17.5764L17.8788 18.8604C17.8439 18.9595 17.7791 19.0454 17.6933 19.1061C17.6075 19.1668 17.505 19.1994 17.4 19.1994C17.2949 19.1994 17.1924 19.1668 17.1066 19.1061C17.0208 19.0454 16.956 18.9595 16.9212 18.8604L16.5023 17.5764C16.3533 17.1222 16.0837 16.717 15.7224 16.404C15.4597 16.1762 15.1547 16.0024 14.8248 15.8928L13.5396 15.4752C13.4404 15.4403 13.3546 15.3755 13.2938 15.2897C13.2331 15.204 13.2005 15.1015 13.2005 14.9964C13.2005 14.8913 13.2331 14.7888 13.2938 14.703C13.3546 14.6173 13.4404 14.5525 13.5396 14.5176L14.8248 14.1C15.2111 13.9674 15.5614 13.747 15.8481 13.4562C16.1349 13.1653 16.3502 12.8118 16.4771 12.4236L16.8948 11.1396C16.9294 11.0401 16.9942 10.9538 17.0801 10.8927C17.166 10.8316 17.2688 10.7988 17.3742 10.7988C17.4795 10.7988 17.5823 10.8316 17.6682 10.8927C17.7541 10.9538 17.8189 11.0401 17.8536 11.1396M23.7396 20.6568L22.8204 20.3592C22.5416 20.2661 22.2882 20.1094 22.0804 19.9016C21.8726 19.6937 21.7159 19.4404 21.6227 19.1616L21.3227 18.2436C21.2979 18.1727 21.2516 18.1113 21.1904 18.0679C21.1291 18.0244 21.0559 18.0011 20.9807 18.0011C20.9056 18.0011 20.8324 18.0244 20.7711 18.0679C20.7099 18.1113 20.6636 18.1727 20.6388 18.2436L20.3412 19.1616C20.2497 19.4386 20.0956 19.6908 19.8908 19.8985C19.686 20.1062 19.436 20.2639 19.1603 20.3592L18.2423 20.6568C18.1895 20.6756 18.1418 20.7064 18.1028 20.7467C18.0638 20.7871 18.0347 20.8359 18.0178 20.8893C18.0008 20.9428 17.9964 20.9994 18.005 21.0548C18.0136 21.1103 18.0348 21.163 18.0672 21.2088C18.1103 21.2688 18.1715 21.3168 18.2423 21.3408L19.1603 21.6396C19.4401 21.7329 19.6942 21.8902 19.9025 22.0989C20.1109 22.3076 20.2676 22.5621 20.3603 22.842L20.6579 23.7588C20.6828 23.8297 20.729 23.8911 20.7903 23.9345C20.8516 23.978 20.9248 24.0013 21 24.0013C21.0751 24.0013 21.1483 23.978 21.2096 23.9345C21.2709 23.8911 21.3171 23.8297 21.3419 23.7588L21.6408 22.842C21.7338 22.5629 21.8906 22.3092 22.0987 22.1011C22.3068 21.8931 22.5604 21.7363 22.8396 21.6432L23.7576 21.3456C23.8284 21.3207 23.8898 21.2745 23.9333 21.2132C23.9767 21.152 24.0001 21.0787 24.0001 21.0036C24.0001 20.9285 23.9767 20.8552 23.9333 20.794C23.8898 20.7327 23.8284 20.6864 23.7576 20.6616L23.7396 20.6568Z" fill="#FDFDFD"/>
</g>
<defs>
<clipPath id="clip0_7_704">
<rect width="24" height="24" fill="white"/>
</clipPath>
</defs>
</svg>
