<svg width="10" height="10" viewBox="0 0 10 10" fill="none" xmlns="http://www.w3.org/2000/svg">
<path fill-rule="evenodd" clip-rule="evenodd" d="M3.79597 0.577333C3.71705 0.645451 3.63443 0.709498 3.54846 0.769203C3.39946 0.865379 3.23196 0.93174 3.05595 0.965402C2.97945 0.979828 2.89945 0.98608 2.73994 0.998102C2.33943 1.02888 2.13893 1.04427 1.97192 1.10101C1.78092 1.16576 1.60743 1.27086 1.46422 1.40859C1.32101 1.54632 1.21173 1.71317 1.1444 1.89686C1.0854 2.05748 1.0694 2.25031 1.0374 2.63549C1.03166 2.73731 1.02031 2.83875 1.0034 2.93941C0.968399 3.10868 0.899397 3.26977 0.799395 3.41308C0.755894 3.47559 0.703893 3.53426 0.59989 3.65111C0.339383 3.94541 0.20888 4.09256 0.132378 4.24644C-0.0441261 4.60229 -0.0441261 5.01585 0.132378 5.3717C0.20888 5.52558 0.339383 5.67273 0.59989 5.96702C0.703893 6.08388 0.755894 6.14254 0.799395 6.20506C0.899397 6.34836 0.968399 6.50946 1.0034 6.67872C1.0184 6.7523 1.0249 6.82924 1.0374 6.98264C1.0694 7.36782 1.0854 7.56066 1.1444 7.72127C1.21173 7.90497 1.32101 8.07182 1.46422 8.20955C1.60743 8.34727 1.78092 8.45238 1.97192 8.51713C2.13893 8.57387 2.33943 8.58926 2.73994 8.62003C2.89945 8.63205 2.97945 8.63831 3.05595 8.65273C3.23196 8.68639 3.39946 8.75324 3.54846 8.84893C3.61347 8.89077 3.67447 8.94078 3.79597 9.0408C4.10198 9.29134 4.25498 9.41685 4.41499 9.49042C4.78499 9.66017 5.21501 9.66017 5.58501 9.49042C5.74502 9.41685 5.89802 9.29134 6.20403 9.0408C6.32553 8.94078 6.38653 8.89077 6.45154 8.84893C6.60054 8.75276 6.76804 8.68639 6.94405 8.65273C7.02055 8.63831 7.10055 8.63205 7.26006 8.62003C7.66057 8.58926 7.86107 8.57387 8.02808 8.51713C8.21908 8.45238 8.39257 8.34727 8.53578 8.20955C8.67899 8.07182 8.78827 7.90497 8.8556 7.72127C8.9146 7.56066 8.9306 7.36782 8.9626 6.98264C8.9751 6.82924 8.9816 6.7523 8.9966 6.67872C9.0316 6.50946 9.1011 6.34836 9.20061 6.20506C9.24411 6.14254 9.29611 6.08388 9.40011 5.96702C9.66062 5.67273 9.79112 5.52558 9.86762 5.3717C10.0441 5.01585 10.0441 4.60229 9.86762 4.24644C9.79112 4.09256 9.66062 3.94541 9.40011 3.65111C9.32928 3.57521 9.26269 3.49576 9.20061 3.41308C9.10054 3.2698 9.03119 3.10877 8.9966 2.93941C8.97969 2.83875 8.96834 2.73731 8.9626 2.63549C8.9306 2.25031 8.9146 2.05748 8.8556 1.89686C8.78827 1.71317 8.67899 1.54632 8.53578 1.40859C8.39257 1.27086 8.21908 1.16576 8.02808 1.10101C7.86107 1.04427 7.66057 1.02888 7.26006 0.998102C7.15419 0.992579 7.04871 0.981664 6.94405 0.965402C6.76795 0.932135 6.60052 0.865436 6.45154 0.769203C6.36557 0.709498 6.28295 0.645451 6.20403 0.577333C5.89802 0.326795 5.74502 0.201285 5.58501 0.127711C5.40238 0.0436396 5.20248 0 5 0C4.79752 0 4.59762 0.0436396 4.41499 0.127711C4.25498 0.201285 4.10198 0.326795 3.79597 0.577333ZM7.18655 3.78143C7.25722 3.70704 7.29535 3.60931 7.29298 3.50858C7.29062 3.40784 7.24796 3.31186 7.17388 3.24061C7.09979 3.16936 6.99999 3.12833 6.89525 3.12606C6.79051 3.12379 6.68889 3.16045 6.61154 3.22842L4.18648 5.56068L3.38846 4.79368C3.31111 4.72571 3.20949 4.68905 3.10475 4.69132C3.00001 4.69359 2.90021 4.73462 2.82612 4.80587C2.75204 4.87712 2.70938 4.9731 2.70702 5.07384C2.70466 5.17457 2.74278 5.2723 2.81345 5.34669L3.89847 6.3902C3.97478 6.46343 4.07818 6.50457 4.18598 6.50457C4.29378 6.50457 4.39718 6.46343 4.47349 6.3902L7.18655 3.78143Z" fill="#279CFF"/>
</svg>
