<svg width="24" height="25" viewBox="0 0 24 25" fill="none" xmlns="http://www.w3.org/2000/svg">
<path fill-rule="evenodd" clip-rule="evenodd" d="M18.3346 5.42294C17.6273 5.42294 16.9489 5.13727 16.4488 4.62877C15.9486 4.12027 15.6676 3.4306 15.6676 2.71147C15.6676 1.99234 15.9486 1.30267 16.4488 0.794172C16.9489 0.285672 17.6273 0 18.3346 0C19.0419 0 19.7202 0.285672 20.2204 0.794172C20.7205 1.30267 21.0015 1.99234 21.0015 2.71147C21.0015 3.4306 20.7205 4.12027 20.2204 4.62877C19.7202 5.13727 19.0419 5.42294 18.3346 5.42294ZM18.3346 4.06721C17.9809 4.06721 17.6417 3.92437 17.3917 3.67012C17.1416 3.41587 17.0011 3.07104 17.0011 2.71147C17.0011 2.35191 17.1416 2.00707 17.3917 1.75282C17.6417 1.49857 17.9809 1.35574 18.3346 1.35574C18.6882 1.35574 19.0274 1.49857 19.2775 1.75282C19.5275 2.00707 19.668 2.35191 19.668 2.71147C19.668 3.07104 19.5275 3.41587 19.2775 3.67012C19.0274 3.92437 18.6882 4.06721 18.3346 4.06721ZM21.7549 7.34944C21.0942 6.94476 20.3648 6.77868 19.638 6.77868H17.0318C16.305 6.77868 15.5756 6.94476 14.9149 7.34877C14.2548 7.7521 13.7815 8.32015 13.4534 8.93701C12.834 10.1009 12.668 11.5563 12.668 12.9771V13.0368C12.668 13.0571 12.6687 13.0772 12.67 13.0971L12.6753 13.1567L12.676 13.1656L12.6773 13.1954L12.6793 13.3018C12.68 13.394 12.6793 13.5221 12.678 13.697L12.6753 13.9492V13.9519C12.6713 14.2284 12.6673 14.5572 12.6673 14.9131C12.6674 15.2088 12.7308 15.501 12.8533 15.7693C12.9757 16.0375 13.1543 16.2754 13.3764 16.4663C13.5986 16.6572 13.859 16.7965 14.1396 16.8746C14.4202 16.9526 14.7141 16.9675 15.0009 16.9182V22.7086C14.9997 23.1413 15.1614 23.5582 15.4528 23.8736C15.7443 24.189 16.1433 24.3792 16.5682 24.405C16.9931 24.4308 17.4116 24.2904 17.738 24.0125C18.0643 23.7347 18.2737 23.3404 18.3232 22.9106L18.3352 22.8103L18.3466 22.9106C18.3961 23.3404 18.6055 23.7347 18.9318 24.0125C19.2582 24.2904 19.6767 24.4308 20.1016 24.405C20.5265 24.3792 20.9255 24.189 21.217 23.8736C21.5084 23.5582 21.6701 23.1413 21.6689 22.7086V16.9182C21.7773 16.9372 21.8885 16.9467 22.0023 16.9467C22.5327 16.9467 23.0415 16.7324 23.4166 16.3511C23.7917 15.9697 24.0025 15.4524 24.0025 14.9131C24.0025 14.5565 23.9985 14.2271 23.9951 13.9505L23.9918 13.697C23.99 13.5298 23.9903 13.3626 23.9925 13.1954L23.9938 13.1656V13.1567L23.9998 13.0971C24.0016 13.0767 24.0025 13.0566 24.0025 13.0368V12.9771C24.0025 11.5563 23.8358 10.1009 23.2157 8.93701C22.8883 8.32015 22.415 7.7521 21.7556 7.34877M14.6675 15.591C14.7845 15.5912 14.8995 15.5601 15.0009 15.5008V11.5238H16.3344V22.7086C16.3334 22.7956 16.3654 22.8796 16.4237 22.9433C16.4821 23.007 16.5623 23.0455 16.6477 23.0507C16.7331 23.0559 16.8173 23.0275 16.8827 22.9714C16.9481 22.9153 16.9898 22.8358 16.9991 22.7492L17.6725 17.0396C17.6918 16.8748 17.7698 16.723 17.8918 16.6128C18.0139 16.5026 18.1714 16.4418 18.3346 16.4418C18.4978 16.4418 18.6553 16.5026 18.7773 16.6128C18.8993 16.723 18.9774 16.8748 18.9966 17.0396L19.6707 22.7492C19.68 22.8358 19.7217 22.9153 19.7871 22.9714C19.8525 23.0275 19.9367 23.0559 20.0221 23.0507C20.1075 23.0455 20.1877 23.007 20.2461 22.9433C20.3044 22.8796 20.3364 22.7956 20.3354 22.7086V11.5238H21.6689V15.5008C21.7703 15.5603 21.8853 15.5917 22.0024 15.5916C22.1195 15.5916 22.2345 15.5602 22.3359 15.5006C22.4373 15.4411 22.5214 15.3554 22.5799 15.2523C22.6384 15.1491 22.6691 15.0321 22.669 14.9131C22.669 14.566 22.665 14.2427 22.6617 13.9654L22.6583 13.7112C22.6518 13.4864 22.6545 13.2614 22.6663 13.0368L22.669 13.0069V12.9771C22.669 11.6241 22.5023 10.4446 22.0436 9.58234C21.8076 9.13902 21.4882 8.76822 21.0675 8.51131C20.6475 8.25372 20.1641 8.13442 19.638 8.13442H17.0318C16.5064 8.13442 16.023 8.25372 15.6016 8.51063C15.1816 8.76822 14.8616 9.13902 14.6262 9.58166C14.1675 10.4446 14.0015 11.6241 14.0015 12.9764V13.0069L14.0035 13.0368C14.0135 13.152 14.0148 13.3703 14.0115 13.7112L14.0081 13.9627V13.9661C14.0048 14.2434 14.0015 14.5653 14.0015 14.9131C14.0015 15.0929 14.0717 15.2653 14.1968 15.3924C14.3218 15.5195 14.4907 15.591 14.6675 15.591ZM2.66637 2.71147C2.66637 3.4306 2.94735 4.12027 3.4475 4.62877C3.94764 5.13727 4.62599 5.42294 5.3333 5.42294C6.04061 5.42294 6.71896 5.13727 7.2191 4.62877C7.71925 4.12027 8.00023 3.4306 8.00023 2.71147C8.00023 1.99234 7.71925 1.30267 7.2191 0.794172C6.71896 0.285672 6.04061 0 5.3333 0C4.62599 0 3.94764 0.285672 3.4475 0.794172C2.94735 1.30267 2.66637 1.99234 2.66637 2.71147ZM3.99984 2.71147C3.99984 3.07104 4.14033 3.41587 4.3904 3.67012C4.64047 3.92437 4.97964 4.06721 5.3333 4.06721C5.68696 4.06721 6.02613 3.92437 6.2762 3.67012C6.52627 3.41587 6.66676 3.07104 6.66676 2.71147C6.66676 2.35191 6.52627 2.00707 6.2762 1.75282C6.02613 1.49857 5.68696 1.35574 5.3333 1.35574C4.97964 1.35574 4.64047 1.49857 4.3904 1.75282C4.14033 2.00707 3.99984 2.35191 3.99984 2.71147ZM3.03574 7.07965C3.44388 6.87617 3.89334 6.77307 4.34787 6.77868H6.98679C7.27349 6.77868 7.77354 6.81122 8.29759 7.07965C9.18501 7.53382 9.69106 8.27745 9.99242 8.9343C10.2798 9.56336 10.4458 10.2589 10.5685 10.8378C10.6858 11.3875 10.6885 11.4017 10.7552 11.7495C10.8185 12.0816 10.9432 12.7324 11.2952 14.5132C11.3555 14.8185 11.346 15.1338 11.2675 15.4348C11.189 15.7358 11.0435 16.0144 10.8423 16.2492C10.6412 16.484 10.3896 16.6687 10.1071 16.7891C9.82464 16.9094 9.51874 16.9622 9.21301 16.9433L9.57305 19.0447C9.67239 19.6277 9.38303 20.2628 8.7663 20.4865C7.77004 20.8391 6.72221 21.0174 5.66733 21.0139C4.26986 21.0139 3.17375 20.7062 2.56836 20.4865C1.95097 20.2628 1.66161 19.627 1.76162 19.0454L2.12165 16.944C1.81588 16.9625 1.51002 16.9094 1.22758 16.7888C0.945153 16.6683 0.69368 16.4835 0.492507 16.2486C0.291334 16.0138 0.145822 15.7352 0.0671637 15.4342C-0.011495 15.1332 -0.0212045 14.8179 0.0387818 14.5125C0.390816 12.7317 0.515495 12.081 0.578834 11.7488C0.645508 11.4017 0.648175 11.3875 0.765519 10.8378C0.888198 10.2589 1.05421 9.56336 1.34158 8.9343C1.64227 8.27745 2.14832 7.53382 3.03574 7.07965ZM4.6679 8.13442H4.34787C4.15785 8.13442 3.89516 8.15746 3.6358 8.29033C3.10708 8.56147 2.77572 9.01564 2.55036 9.50642C2.33034 9.98771 2.18899 10.5551 2.06831 11.1245C1.95364 11.6648 1.95164 11.6736 1.88963 11.9996L1.88763 12.0078C1.82362 12.3433 1.69894 12.9954 1.34624 14.7802C1.32092 14.9087 1.33275 15.0419 1.3803 15.1636C1.42786 15.2854 1.5091 15.3905 1.6142 15.4663C1.71931 15.5421 1.84376 15.5854 1.97251 15.5907C2.10126 15.5961 2.22879 15.5635 2.33967 15.4967L3.13042 11.0743L4.44188 11.317L4.02517 13.6489L4.04117 13.6312L3.08308 19.2331C3.91549 19.518 4.78836 19.6616 5.66667 19.6582C6.82211 19.6582 7.73553 19.4141 8.25092 19.2331L7.29282 13.634L7.30883 13.6523L6.89145 11.317L8.20358 11.0743L8.99432 15.4974C9.10524 15.564 9.23277 15.5965 9.36149 15.591C9.4902 15.5855 9.61458 15.5422 9.7196 15.4663C9.82462 15.3905 9.90577 15.2853 9.95324 15.1635C10.0007 15.0418 10.0125 14.9086 9.98709 14.7802C9.80339 13.8567 9.62293 12.9326 9.4457 12.0078L9.4437 12.0003C9.38845 11.7075 9.32888 11.4155 9.26502 11.1245C9.14367 10.5551 9.00299 9.98771 8.7823 9.50642C8.55761 9.01564 8.22625 8.56079 7.69753 8.29033C7.47543 8.18245 7.23154 8.12905 6.98546 8.13442H4.6679Z" fill="#FDFDFD"/>
<path d="M7.81022 24.3443C8.04821 24.3094 8.26587 24.1885 8.42334 24.0038C8.5808 23.819 8.66753 23.5828 8.66764 23.3383V21.6918C7.85335 21.809 7.0338 21.8848 6.21206 21.9189L6.70811 23.6257C6.77618 23.8602 6.92504 24.0619 7.12745 24.1938C7.32985 24.3258 7.57224 24.3792 7.81022 24.3443ZM5.15663 21.9317L4.61991 23.6467C4.54777 23.8783 4.39645 24.076 4.19335 24.204C3.99025 24.332 3.74879 24.3818 3.51268 24.3445C3.27658 24.3071 3.06143 24.185 2.90619 24.0003C2.75096 23.8157 2.66589 23.5806 2.66638 23.3376V21.7541C3.54047 21.8606 4.35188 21.9202 5.15663 21.9317Z" fill="#FDFDFD"/>
</svg>
