<svg width="8" height="24" viewBox="0 0 8 24" fill="none" xmlns="http://www.w3.org/2000/svg">
<g clip-path="url(#clip0_7_731)">
<path d="M0.833333 19.8857H1.66667V13.1143H0.833333C0.373083 13.1143 0 12.6945 0 12.1768V9.9375C0 9.41972 0.373083 9 0.833333 9H5.5C5.96025 9 6.33333 9.41972 6.33333 9.9375V19.8857H7.16667C7.62692 19.8857 8 20.3055 8 20.8232V23.0625C8 23.5803 7.62692 24 7.16667 24H0.833333C0.373083 24 0 23.5803 0 23.0625V20.8232C0 20.3055 0.373083 19.8857 0.833333 19.8857ZM4 0C2.34313 0 1 1.51102 1 3.375C1 5.23898 2.34313 6.75 4 6.75C5.65688 6.75 7 5.23898 7 3.375C7 1.51102 5.65683 0 4 0Z" fill="#FDFDFD"/>
</g>
<defs>
<clipPath id="clip0_7_731">
<rect width="8" height="24" fill="white"/>
</clipPath>
</defs>
</svg>
