<svg width="16" height="22" viewBox="0 0 16 22" fill="none" xmlns="http://www.w3.org/2000/svg">
<path d="M8 16.2672C7.46957 16.2672 6.96086 16.053 6.58579 15.6717C6.21071 15.2903 6 14.7731 6 14.2338C6 13.1053 6.89 12.2004 8 12.2004C8.53043 12.2004 9.03914 12.4147 9.41421 12.796C9.78929 13.1773 10 13.6945 10 14.2338C10 14.7731 9.78929 15.2903 9.41421 15.6717C9.03914 16.053 8.53043 16.2672 8 16.2672ZM14 19.3174V9.15032H2V19.3174H14ZM14 7.11692C14.5304 7.11692 15.0391 7.33115 15.4142 7.71249C15.7893 8.09383 16 8.61103 16 9.15032V19.3174C16 19.8566 15.7893 20.3738 15.4142 20.7552C15.0391 21.1365 14.5304 21.3508 14 21.3508H2C1.46957 21.3508 0.960859 21.1365 0.585786 20.7552C0.210714 20.3738 0 19.8566 0 19.3174V9.15032C0 8.02178 0.89 7.11692 2 7.11692H3V5.08351C3 3.73528 3.52678 2.44227 4.46447 1.48893C5.40215 0.535583 6.67392 0 8 0C8.65661 0 9.30679 0.131489 9.91342 0.386959C10.52 0.64243 11.0712 1.01688 11.5355 1.48893C11.9998 1.96097 12.3681 2.52138 12.6194 3.13814C12.8707 3.7549 13 4.41594 13 5.08351V7.11692H14ZM8 2.03341C7.20435 2.03341 6.44129 2.35476 5.87868 2.92676C5.31607 3.49877 5 4.27457 5 5.08351V7.11692H11V5.08351C11 4.27457 10.6839 3.49877 10.1213 2.92676C9.55871 2.35476 8.79565 2.03341 8 2.03341Z" fill="#FDFDFD"/>
</svg>
