<svg width="22" height="20" viewBox="0 0 22 20" fill="none" xmlns="http://www.w3.org/2000/svg">
<path d="M10.9847 13.4674L14.2267 17.2149C15.4267 18.6027 16.0277 19.2971 16.6567 19.1274C17.2847 18.9586 17.5007 18.0456 17.9317 16.2186L20.3217 6.08408C20.9867 3.26984 21.3187 1.86374 20.5807 1.16934C19.8427 0.474929 18.5637 0.991413 16.0057 2.02337L4.13974 6.81509C2.09374 7.64167 1.07074 8.05445 1.00574 8.7641C0.998086 8.83642 0.998086 8.90936 1.00574 8.98168C1.06874 9.69235 2.08974 10.1082 4.13374 10.9409C5.05874 11.3181 5.52174 11.5072 5.85374 11.8681C5.89107 11.9088 5.92707 11.9508 5.96174 11.9942C6.26774 12.3805 6.39774 12.8889 6.65874 13.9015L7.14774 15.7997C7.40074 16.7859 7.52774 17.28 7.86074 17.3471C8.19374 17.4142 8.48274 17.0055 9.06174 16.1871L10.9847 13.4674ZM10.9847 13.4674L10.6677 13.1319C10.3057 12.7475 10.1247 12.5564 10.1247 12.3185C10.1247 12.0806 10.3047 11.8884 10.6677 11.5051L14.2407 7.71893" stroke="#FDFDFD" stroke-width="1.5" stroke-linecap="round" stroke-linejoin="round"/>
</svg>
