<svg width="24" height="24" viewBox="0 0 24 24" fill="none" xmlns="http://www.w3.org/2000/svg">
<path fill-rule="evenodd" clip-rule="evenodd" d="M23.405 16.865C22.8609 15.7695 22.1441 14.7687 21.282 13.901C20.9932 13.5755 20.6913 13.2619 20.377 12.961L20.339 12.924C20.2222 12.8108 20.1069 12.6961 19.993 12.58C21.1718 10.9409 22.1803 9.18578 23.003 7.34201L23.036 7.26801L23.059 7.19001C23.168 6.82701 23.292 6.13701 22.852 5.51301C22.396 4.86901 21.667 4.75301 21.178 4.75301H18.931C18.4604 4.73125 17.9951 4.85907 17.6017 5.11812C17.2082 5.37717 16.9069 5.75415 16.741 6.19501C16.2575 7.34667 15.652 8.44325 14.935 9.466V6.83301C14.935 6.49301 14.903 5.92301 14.538 5.44301C14.102 4.86701 13.471 4.75301 13.033 4.75301H9.467C9.00167 4.7423 8.55005 4.91097 8.20567 5.22408C7.86128 5.53719 7.65051 5.97076 7.617 6.43501L7.614 6.48001V6.52501C7.614 7.01001 7.806 7.36801 7.96 7.59301C8.029 7.69401 8.102 7.78601 8.149 7.84401L8.159 7.85701C8.209 7.91901 8.242 7.96 8.275 8.006C8.363 8.124 8.488 8.308 8.524 8.782V10.255C7.80827 9.05627 7.22134 7.7852 6.773 6.46301L6.765 6.44101L6.757 6.42001C6.635 6.10101 6.44 5.63701 6.049 5.28301C5.593 4.86801 5.053 4.75301 4.562 4.75301H2.282C1.785 4.75301 1.186 4.86901 0.739 5.34001C0.3 5.80401 0.25 6.36001 0.25 6.65401V6.78801L0.278 6.91801C0.908264 9.84913 2.20931 12.5943 4.079 14.938C4.93332 16.2854 6.09321 17.4124 7.46459 18.2276C8.83596 19.0428 10.3802 19.5233 11.972 19.63L12.013 19.633H12.055C12.781 19.633 13.538 19.57 14.107 19.191C14.874 18.679 14.935 17.894 14.935 17.502V16.364C15.132 16.524 15.376 16.738 15.675 17.026C16.037 17.388 16.325 17.702 16.572 17.976L16.704 18.122C16.896 18.336 17.085 18.547 17.257 18.72C17.473 18.937 17.74 19.176 18.074 19.353C18.437 19.544 18.818 19.631 19.222 19.631H21.503C21.984 19.631 22.673 19.517 23.158 18.955C23.686 18.343 23.646 17.592 23.48 17.053L23.45 16.956L23.405 16.865ZM17.685 16.971C17.3751 16.6245 17.056 16.2864 16.728 15.957L16.725 15.954C15.368 14.646 14.735 14.419 14.287 14.419C14.048 14.419 13.785 14.445 13.614 14.659C13.5379 14.7616 13.4875 14.8809 13.467 15.007C13.4432 15.1538 13.4324 15.3023 13.435 15.451V17.502C13.435 17.757 13.393 17.864 13.275 17.942C13.118 18.047 12.783 18.132 12.064 18.132C10.6982 18.0391 9.37398 17.6233 8.20018 16.9189C7.02637 16.2145 6.03652 15.2415 5.312 14.08L5.304 14.067L5.294 14.055C3.55218 11.8888 2.3388 9.34661 1.75 6.63001C1.754 6.50001 1.782 6.42101 1.828 6.37301C1.875 6.32301 1.99 6.25301 2.282 6.25301H4.562C4.815 6.25301 4.947 6.30901 5.042 6.39401C5.148 6.49201 5.242 6.65701 5.354 6.95101C5.914 8.59701 6.67 10.137 7.387 11.269C7.745 11.834 8.097 12.305 8.415 12.638C8.574 12.804 8.729 12.942 8.878 13.04C9.021 13.134 9.184 13.209 9.352 13.209C9.44 13.209 9.543 13.199 9.642 13.156C9.74905 13.109 9.83712 13.0272 9.892 12.924C9.995 12.736 10.024 12.459 10.024 12.096V8.723C9.971 7.905 9.724 7.44401 9.484 7.11701C9.43532 7.05166 9.38531 6.98731 9.334 6.92401L9.321 6.90801C9.27856 6.85605 9.23787 6.80269 9.199 6.74801C9.1503 6.68655 9.12075 6.61213 9.114 6.53401C9.12185 6.45454 9.15976 6.38108 9.21999 6.32866C9.28022 6.27623 9.35821 6.24881 9.438 6.25201H13.033C13.239 6.25201 13.308 6.30201 13.343 6.34901C13.393 6.41401 13.435 6.54901 13.435 6.83301V11.361C13.435 11.899 13.683 12.263 14.043 12.263C14.457 12.263 14.756 12.012 15.278 11.49L15.287 11.48L15.295 11.471C16.4661 10.0434 17.4228 8.45265 18.135 6.74901L18.139 6.73701C18.1922 6.5863 18.2935 6.45724 18.4272 6.36962C18.5608 6.28201 18.7196 6.24069 18.879 6.25201H21.179C21.491 6.25201 21.593 6.33201 21.627 6.37901C21.662 6.42901 21.687 6.53601 21.627 6.74601C20.8057 8.58242 19.7903 10.3257 18.598 11.946L18.59 11.958C18.475 12.135 18.348 12.331 18.33 12.555C18.31 12.797 18.414 13.016 18.597 13.252C18.73 13.448 19.005 13.717 19.284 13.99L19.31 14.016C19.602 14.302 19.919 14.612 20.173 14.912L20.18 14.919L20.187 14.927C20.9443 15.6826 21.5741 16.5559 22.052 17.513C22.128 17.773 22.082 17.907 22.022 17.976C21.953 18.056 21.798 18.131 21.504 18.131H19.222C19.0664 18.1352 18.9124 18.0991 18.775 18.026C18.6067 17.9275 18.4538 17.8048 18.321 17.662C18.178 17.519 18.023 17.346 17.833 17.135L17.685 16.971Z" fill="#FDFDFD"/>
</svg>
